<svg xmlns="http://www.w3.org/2000/svg" width="521" height="106" fill="none" viewBox="0 0 521 106"><path fill="#000" d="M119.918 37.3015L113 92.3861H131.111L138.029 37.3015H119.918ZM119.798 18.6134C119.798 24.4183 124.452 28.9881 130.363 28.9881C136.274 28.9881 140.928 24.4183 140.928 18.6134C140.928 12.8086 136.274 8.23877 130.363 8.23877C124.452 8.23877 119.798 12.8086 119.798 18.6134Z"/><path fill="#000" d="M147.257 37.3015L140.339 92.3861H158.451L161.721 65.2144C162.098 62.2502 162.853 56.9393 166.123 53.6046C168.387 51.3815 171.154 50.6404 174.298 50.6404C176.185 50.6404 178.952 51.0109 180.964 52.9871C182.851 54.9632 183.228 57.5569 183.228 59.6565C183.228 60.521 183.228 62.8677 182.473 68.5491L179.455 92.3861H197.566L200.962 64.1028C201.717 58.1744 201.842 55.4572 201.842 53.6046C201.842 50.2699 201.465 44.712 197.063 40.5127C192.787 36.437 187.127 35.8194 182.473 35.8194C178.574 35.8194 175.43 36.0664 171.405 38.1661C169.016 39.4012 166.626 41.1303 164.488 43.3534L165.368 37.3015H147.257Z"/><path fill="#000" d="M253.2 41.0068C245.528 35.8194 238.862 35.4489 234.711 35.4489C230.687 35.4489 222.008 35.8194 216.223 41.3773C213.204 44.3415 210.94 48.9113 210.94 54.2221C210.94 59.533 213.33 62.6207 214.713 64.1028C217.355 66.6965 221.128 68.1786 224.146 69.0431L228.171 70.2782C229.68 70.7722 231.441 71.1427 232.573 71.8838C233.454 72.5013 234.334 73.4894 234.334 75.342C234.334 77.0711 233.579 78.0592 232.07 78.9238C230.561 79.7883 228.8 80.1588 226.536 80.1588C222.637 80.1588 219.367 78.6767 218.738 78.4297C216.474 77.4417 213.833 75.7126 211.821 73.8599L203.148 85.8402C205.79 88.1869 209.682 90.163 212.827 91.5216C217.858 93.7447 222.637 94.2388 227.416 94.2388C232.322 94.2388 241.126 93.4977 247.163 87.3223C249.553 84.9757 252.445 80.5294 252.445 73.7364C252.445 69.4136 251.188 66.0789 248.295 63.2382C245.151 60.027 241.377 58.7919 238.61 58.0509L234.46 56.9393C231.315 56.0748 230.435 55.7042 230.058 55.4572C228.674 54.5927 228.297 53.4811 228.297 52.493C228.297 51.505 228.8 50.3934 229.555 49.7758C230.812 48.6643 233.202 48.2938 234.963 48.2938C239.365 48.2938 243.012 50.1464 245.528 51.999L253.2 41.0068Z"/><path fill="#000" d="M294.654 51.6285L296.415 37.3015H285.347L287.611 19.5164H269.5L267.236 37.3015H260.695L258.935 51.6285H265.475L260.318 92.3861H278.43L283.586 51.6285H294.654Z"/><path fill="#000" d="M344.816 43.971C342.301 40.5127 339.282 38.5366 337.144 37.5485C333.497 35.8194 329.472 35.4489 326.202 35.4489C318.404 35.4489 311.361 37.6721 305.575 43.4769C300.167 48.9113 296.519 57.0628 296.519 67.1905C296.519 76.7006 299.915 83.123 304.066 87.4458C308.971 92.5097 314.505 94.2388 321.423 94.2388C323.561 94.2388 327.963 93.9917 331.862 92.2626C334.88 90.904 337.773 88.4339 339.786 86.0872L338.402 92.3861H356.513L363.431 37.3015H345.32L344.816 43.971ZM330.101 50.7639C335.006 50.7639 337.899 52.3695 339.534 53.8516C341.924 55.9513 343.433 59.4095 343.433 63.3617C343.433 67.4375 341.924 72.1308 338.654 75.2185C336.767 76.9476 333.497 78.9238 328.34 78.9238C324.693 78.9238 321.423 77.9357 318.781 75.2185C317.02 73.3659 315.134 70.4017 315.134 65.8319C315.134 61.2621 316.895 57.3098 319.41 54.8397C322.177 52.1225 325.573 50.7639 330.101 50.7639Z"/><path fill="#000" d="M406.151 51.6285L407.912 37.3015H396.844L399.107 19.5164H380.996L378.732 37.3015H372.192L370.431 51.6285H376.971L371.815 92.3861H389.926L395.083 51.6285H406.151Z"/><path fill="#000" d="M453.672 37.3015L450.15 66.2024C449.395 72.7484 447.257 75.342 446.503 76.0831C444.49 78.1827 441.094 79.1708 438.202 79.1708C435.56 79.1708 432.416 78.3062 430.781 76.8241C429.523 75.7126 428.391 73.7364 428.391 70.7722C428.391 69.4136 428.643 68.1786 429.02 64.7203L432.29 37.3015H414.179L410.783 65.3379C410.531 67.067 410.154 70.8957 410.154 73.1189C410.154 78.9238 412.418 84.4816 416.191 87.9398C422.48 93.8682 432.416 94.2388 438.076 94.2388C444.49 94.2388 453.42 93.4977 460.086 87.1988C466.375 81.2704 467.507 73.6129 468.262 67.067L471.783 37.3015H453.672Z"/><path fill="#000" d="M521 41.0068C513.328 35.8194 506.662 35.4489 502.511 35.4489C498.487 35.4489 489.808 35.8194 484.023 41.3773C481.004 44.3415 478.74 48.9113 478.74 54.2221C478.74 59.533 481.13 62.6207 482.513 64.1028C485.154 66.6965 488.928 68.1786 491.946 69.0431L495.971 70.2782C497.48 70.7722 499.241 71.1427 500.373 71.8838C501.254 72.5013 502.134 73.4894 502.134 75.342C502.134 77.0711 501.379 78.0592 499.87 78.9238C498.361 79.7883 496.6 80.1588 494.336 80.1588C490.437 80.1588 487.167 78.6767 486.538 78.4297C484.274 77.4417 481.633 75.7126 479.62 73.8599L471.948 85.8402C474.589 88.1869 477.482 90.163 480.627 91.5216C485.658 93.7447 490.437 94.2388 495.216 94.2388C500.122 94.2388 508.926 93.4977 514.963 87.3223C517.353 84.9757 520.245 80.5294 520.245 73.7364C520.245 69.4136 518.988 66.0789 516.095 63.2382C512.95 60.027 509.177 58.7919 506.41 58.0509L502.26 56.9393C499.115 56.0748 498.235 55.7042 497.858 55.4572C496.474 54.5927 496.097 53.4811 496.097 52.493C496.097 51.505 496.6 50.3934 497.355 49.7758C498.612 48.6643 501.002 48.2938 502.763 48.2938C507.165 48.2938 510.812 50.1464 513.328 51.999L521 41.0068Z"/><path fill="#000" fill-rule="evenodd" d="M8.50635 81.0387C2.62187 89.0218 -1.92578 100.784 2.78714 104.328C9.43651 109.328 39.6704 95.4919 63.826 65.6845C87.9815 35.8772 95.9808 5.13724 85.239 0.410511C80.2872 -1.76846 69.9398 5.16325 64.0004 10.9187L66.5639 12.2972C72.4096 8.55469 82.1558 4.68793 73.1443 20.9683L73.0149 21.2017C60.258 11.5135 42.5262 9.51874 27.4625 17.5464C6.82402 28.545 -0.990688 54.1919 10.0079 74.8304C12.5962 79.6873 15.9958 83.8341 19.9505 87.1925C4.33278 99.2583 8.1418 88.7704 10.3275 83.61L8.50635 81.0387ZM67.2903 92.2856C83.0204 83.9028 91.3011 67.0108 89.4805 50.3124C83.6842 55.0748 77.9658 60.4957 72.4917 66.5098C63.4266 76.4693 56.0441 86.9431 50.5683 97.151C56.2506 96.7245 61.9388 95.1375 67.2903 92.2856Z" clip-rule="evenodd"/></svg>